<?xml version="1.0" encoding="utf-8"?>
<!-- Generator: Adobe Illustrator 25.4.1, SVG Export Plug-In . SVG Version: 6.00 Build 0)  -->
<svg version="1.1" id="Layer_1" xmlns="http://www.w3.org/2000/svg" xmlns:xlink="http://www.w3.org/1999/xlink" x="0px" y="0px"
	 viewBox="0 0 510.2 45.4" style="enable-background:new 0 0 510.2 45.4;" xml:space="preserve">
<style type="text/css">
	.st0{fill:#FFFFFF;}
</style>
<g>
	<path class="st0" d="M270.8,13.5c0-1-0.1-4.2-2.2-7.1c-3.5-4.8-9.8-4.8-10.9-4.8c-1.1,0-7.7,0-11.2,5c-1.9,2.8-1.9,5.8-1.9,6.9
		c0,1.1,0.1,4.4,2.3,7.4c3.5,4.5,9.4,4.5,10.8,4.5c1.2,0,7.6,0,11.1-4.9C270.8,17.6,270.8,14.5,270.8,13.5z M264.7,18.2
		c-2.2,3.3-6.3,3.3-7.1,3.3c-0.9,0-4.6,0-6.9-3c-1.4-1.9-1.5-4-1.5-4.9c0-0.8,0-3.6,2-5.6c1.2-1.2,2.5-1.6,2.9-1.8
		c1.3-0.4,2.7-0.5,3.1-0.5c0.1,0,0.2,0,0.3,0c0.4,0,1.8,0,2.9,0.2c0.1,0,1.5,0.3,2.7,1.2c2.7,2,2.8,5.8,2.8,6.5
		C265.9,14.4,265.9,16.4,264.7,18.2z"/>
	<rect x="242.8" y="29" class="st0" width="29.6" height="1.5"/>
	<polygon class="st0" points="242.6,35.5 245.4,42.9 246.9,42.9 248.5,37 250.1,42.9 251.7,42.9 254.5,35.5 252.9,35.5 251,41.3 
		249.4,35.5 247.6,35.5 246.1,41.3 244.4,35.5 	"/>
	<path class="st0" d="M260.4,35.5h-1.9l-3.5,7.3h1.7l0.7-1.5h4l0.7,1.5h1.9L260.4,35.5z M258,40l1.5-3.1l1.5,3.1H258z"/>
	<polygon class="st0" points="267.7,42.9 269.3,42.9 269.3,40 272.6,35.5 270.8,35.5 268.6,38.8 266.3,35.5 264.4,35.5 267.7,40 	
		"/>
</g>
</svg>
